<svg xmlns="http://www.w3.org/2000/svg" width="1024" height="1024" viewBox="0 0 1024 1024">
<g>
<path d="M 673.00 730.19 L 673.00 754.00 L 657.00 754.00 L 657.00 677.00 L 674.75 677.02 C694.20,677.05 699.61,677.85 705.24,681.56 C711.25,685.51 714.19,690.86 714.76,698.91 C715.41,707.96 714.62,711.73 710.87,717.38 C705.62,725.30 698.33,728.45 682.75,729.52 ZM 605.22 741.75 L 604.94 754.00 L 589.00 754.00 L 589.00 676.85 L 608.83 677.17 C628.62,677.50 628.66,677.50 634.54,680.52 C642.68,684.68 646.12,690.25 646.77,700.30 C647.35,709.31 644.77,716.17 638.77,721.59 C632.91,726.88 628.87,728.21 616.50,728.89 L 605.50 729.50 ZM 458.17 753.38 C445.64,757.36 433.91,755.12 424.64,746.99 C418.56,741.65 416.68,736.95 416.20,725.84 C415.82,717.13 416.02,715.63 418.28,710.69 C426.29,693.20 453.02,688.23 467.77,701.48 C474.74,707.75 477.46,714.21 477.47,724.50 C477.47,731.25 477.03,733.41 474.68,738.22 C471.30,745.14 464.52,751.36 458.17,753.38 ZM 521.65 752.25 C521.15,753.73 519.77,754.00 512.54,754.00 L 504.02 754.00 L 505.70 749.75 C506.63,747.41 513.56,730.20 521.10,711.50 L 534.80 677.50 L 552.31 677.50 L 554.07 682.50 C555.04,685.25 560.19,698.97 565.53,713.00 C570.86,727.03 576.52,742.01 578.11,746.29 L 581.01 754.08 L 563.62 753.50 L 561.10 745.73 L 558.58 737.95 L 542.73 738.23 L 526.88 738.50 L 524.55 744.50 C523.28,747.80 521.97,751.29 521.65,752.25 ZM 315.62 750.88 L 316.25 754.00 L 250.00 754.00 L 250.08 742.50 L 291.94 690.50 L 272.72 690.00 L 253.50 689.50 L 253.20 682.75 L 252.91 676.00 L 314.00 676.00 L 313.97 686.50 L 293.49 712.80 C282.22,727.26 273.00,739.53 273.00,740.05 C273.00,740.62 281.40,741.00 294.00,741.00 L 315.00 741.00 L 315.00 744.38 C315.00,746.23 315.28,749.16 315.62,750.88 ZM 363.27 753.42 C351.72,757.36 336.77,754.12 328.35,745.85 C322.71,740.32 320.50,733.98 320.56,723.50 C320.60,716.88 321.06,714.64 323.22,710.50 C328.73,699.95 338.66,694.00 350.79,694.00 C367.75,694.00 377.82,703.98 378.30,721.26 L 378.50 728.50 L 357.75 728.77 C342.72,728.97 337.78,728.98 337.06,730.72 C336.72,731.56 337.37,732.82 338.34,734.70 C338.40,734.81 338.46,734.92 338.52,735.04 C342.55,742.84 357.64,744.42 364.72,737.79 L 366.94 735.71 L 371.94 739.10 C374.70,740.97 376.96,742.80 376.97,743.17 C377.04,744.82 367.43,752.00 363.27,753.42 ZM 741.00 723.00 L 741.00 754.00 L 725.00 754.00 L 725.00 677.00 L 775.09 677.00 L 774.80 683.75 L 774.50 690.50 L 741.00 691.05 L 741.00 710.00 L 771.00 710.00 L 771.00 723.00 ZM 409.82 754.10 C406.99,755.61 399.74,755.07 395.21,753.01 C388.04,749.75 388.00,749.50 388.00,706.53 L 388.00 669.00 L 404.00 669.00 L 404.00 704.89 C404.00,706.35 404.00,707.74 404.00,709.08 C403.99,735.17 403.99,740.62 406.19,741.73 C406.77,742.02 407.50,742.01 408.43,742.00 C408.61,742.00 408.79,742.00 408.99,742.00 C411.62,742.00 412.35,752.74 409.82,754.10 ZM 439.76 739.94 C450.48,745.60 460.95,738.09 460.98,724.72 C461.01,714.75 456.66,708.30 449.21,707.30 C443.59,706.55 438.45,708.54 435.26,712.72 C433.08,715.58 432.48,717.59 432.17,722.98 C431.69,731.43 434.18,736.99 439.76,739.94 ZM 605.00 690.00 L 605.00 716.00 L 612.25 715.98 C625.52,715.94 632.01,710.54 630.68,700.63 C629.66,693.02 624.29,690.38 609.25,690.08 ZM 673.67 715.33 C674.62,716.29 683.82,716.11 688.41,715.04 C696.49,713.17 700.78,705.19 697.68,697.78 C695.49,692.54 692.77,691.25 682.25,690.45 L 673.00 689.74 L 673.00 702.20 C673.00,709.06 673.30,714.97 673.67,715.33 ZM 532.00 723.97 C532.00,724.61 535.99,725.00 542.62,725.00 C543.82,725.00 544.90,725.02 545.87,725.04 C549.32,725.10 551.30,725.13 552.09,724.18 C553.14,722.91 552.08,719.87 549.60,712.78 C549.08,711.30 548.50,709.63 547.86,707.77 C544.05,696.66 542.00,692.55 542.00,696.03 C542.00,696.60 539.75,702.88 537.00,710.00 C534.25,717.12 532.00,723.40 532.00,723.97 ZM 337.16 718.12 C337.90,718.59 344.01,718.98 350.75,718.98 C362.79,719.00 363.00,718.96 363.00,716.75 C362.99,713.78 359.67,708.43 356.91,706.95 C355.65,706.28 352.43,705.97 349.35,706.22 C343.54,706.70 340.09,709.04 337.31,714.38 C336.07,716.78 336.04,717.41 337.16,718.12 Z" fill="rgb(1,7,45)"/>
<path d="M 355.55 558.55 C354.20,559.90 352.43,561.00 351.62,561.00 C346.01,561.00 327.79,525.58 320.55,500.58 C319.24,496.07 317.16,486.56 315.91,479.44 C312.94,462.47 312.65,432.55 315.31,418.00 C319.08,397.35 323.80,382.45 332.02,365.26 C350.32,326.99 380.70,296.35 419.50,277.03 C443.47,265.09 460.88,259.87 488.23,256.39 C507.37,253.96 533.73,255.82 554.22,261.06 C565.23,263.87 578.01,268.86 578.68,270.61 C579.44,272.58 576.49,276.73 572.70,279.04 C568.62,281.53 564.29,281.51 553.43,278.93 C539.15,275.53 529.21,274.04 516.28,273.35 C503.08,272.65 501.00,273.21 501.00,277.50 C501.00,281.02 503.15,282.03 512.71,283.02 C533.54,285.18 544.41,288.73 565.84,300.37 C574.45,305.05 586.90,311.76 593.50,315.28 C612.54,325.43 616.51,330.65 610.08,337.08 C607.63,339.52 606.34,340.00 602.18,340.00 C597.76,340.00 593.91,338.35 567.85,325.23 C532.26,307.32 511.76,300.05 496.71,300.01 C487.73,299.99 482.36,303.27 458.50,323.36 C451.35,329.38 444.04,335.25 442.26,336.40 C440.48,337.56 439.02,338.84 439.01,339.25 C438.99,340.42 448.19,340.14 466.06,338.41 C493.43,335.76 502.14,337.55 506.17,346.65 C508.48,351.88 508.10,354.54 504.37,358.97 C500.68,363.36 497.31,364.85 473.00,372.82 C447.31,381.25 436.39,384.21 420.81,386.94 C391.68,392.06 366.78,403.49 350.29,419.32 C340.81,428.42 337.03,433.91 333.97,443.00 C332.00,448.87 331.84,450.91 332.31,464.00 C332.60,471.98 333.57,481.88 334.48,486.00 C337.10,497.92 344.23,518.34 351.39,534.44 C358.74,550.96 359.38,554.71 355.55,558.55 ZM 374.68 576.94 C373.14,577.52 371.34,577.98 370.68,577.96 C368.47,577.89 363.51,575.31 360.19,572.51 L 356.87 569.71 L 360.66 567.59 C362.74,566.42 365.51,563.90 366.81,561.98 C370.83,556.06 369.73,549.43 361.74,531.50 C354.00,514.14 346.87,493.80 344.32,481.85 C343.19,476.52 342.55,469.16 342.54,461.50 C342.53,444.86 344.30,440.54 355.91,428.92 C360.64,424.20 365.51,419.80 366.75,419.13 L 369.00 417.93 L 369.00 430.32 C369.00,442.15 368.86,442.99 365.97,448.61 C358.22,463.71 360.03,476.90 375.23,516.00 C386.27,544.43 388.46,554.48 385.66,564.08 C383.96,569.95 379.56,575.10 374.68,576.94 ZM 405.83 473.73 C397.59,481.32 387.82,474.24 384.49,458.26 C383.16,451.92 381.01,425.42 381.00,415.37 L 381.00 411.24 L 389.25 407.70 C396.71,404.51 409.13,400.00 410.47,400.00 C410.76,400.00 411.00,414.64 411.00,432.53 C411.00,467.40 410.78,469.18 405.83,473.73 ZM 569.72 351.48 C566.87,354.33 565.47,354.99 562.35,354.93 C557.11,354.83 554.45,353.74 532.11,342.56 C511.05,332.01 497.11,326.89 484.25,324.98 C479.71,324.31 476.00,323.41 476.00,322.98 C476.00,321.89 481.56,317.18 488.32,312.55 L 494.09 308.61 L 502.79 310.40 C507.58,311.39 515.78,313.78 521.00,315.72 C531.76,319.73 568.97,338.05 570.79,340.25 C571.45,341.04 572.27,343.10 572.61,344.82 C573.15,347.50 572.72,348.48 569.72,351.48 ZM 626.69 315.83 C622.51,319.75 619.08,318.68 598.75,307.14 C588.44,301.29 577.69,295.23 574.87,293.68 L 569.73 290.85 L 575.12 288.36 C578.08,286.99 581.69,284.74 583.15,283.35 L 585.80 280.82 L 603.49 290.66 C624.64,302.42 629.00,305.80 629.00,310.40 C629.00,312.51 628.18,314.42 626.69,315.83 ZM 391.57 512.92 C389.46,515.26 383.84,515.76 382.26,513.75 C380.58,511.63 375.20,496.72 372.02,485.42 C368.00,471.08 368.03,465.22 372.18,458.00 L 375.34 452.50 L 377.10 459.61 C378.06,463.52 382.11,475.00 386.09,485.11 C393.75,504.56 394.71,509.45 391.57,512.92 Z" fill="rgb(6,105,154)"/>
<path d="M 542.31 639.94 C532.41,641.40 502.42,641.10 491.50,639.43 C476.04,637.06 458.54,632.20 448.75,627.55 C444.03,625.31 443.76,622.09 447.92,617.92 C450.43,615.42 451.62,615.00 456.20,615.00 C459.14,615.00 466.04,616.14 471.52,617.53 C484.67,620.87 497.12,622.84 510.04,623.63 C519.20,624.19 520.81,624.05 522.29,622.57 C524.38,620.48 524.49,617.66 522.56,616.05 C521.77,615.39 516.49,614.42 510.82,613.89 C490.13,611.94 479.95,608.86 461.00,598.79 C441.43,588.40 415.61,573.05 413.25,570.41 C410.77,567.63 410.29,562.48 412.28,559.95 C414.28,557.42 418.30,555.00 420.53,555.00 C423.23,555.00 436.00,561.26 448.00,568.46 C462.29,577.04 482.20,586.50 494.25,590.44 C505.17,594.02 522.66,598.00 527.44,598.00 C531.77,598.00 538.68,593.84 555.00,581.41 C563.53,574.92 573.77,567.25 577.76,564.37 C583.68,560.10 584.66,559.03 583.10,558.53 C582.05,558.20 573.94,558.62 565.08,559.46 C534.45,562.39 525.85,561.36 519.71,554.07 C517.55,551.49 517.00,549.83 517.00,545.79 C517.00,541.33 517.40,540.36 520.44,537.49 C524.73,533.44 529.87,531.61 571.00,519.51 C583.48,515.84 591.53,513.89 602.00,512.03 C614.65,509.77 628.58,506.16 636.83,502.99 C651.75,497.27 667.22,487.54 676.20,478.24 C688.98,465.00 693.00,455.52 693.00,438.64 C693.00,416.86 686.48,392.46 672.50,361.92 C665.37,346.34 664.47,342.92 666.48,339.03 C668.62,334.90 672.39,334.08 675.57,337.07 C680.67,341.86 693.77,367.01 699.99,383.95 C707.61,404.69 710.12,418.70 710.73,444.00 C711.27,465.99 710.07,478.66 705.92,494.62 C696.90,529.38 676.30,564.58 651.23,588.08 C620.88,616.54 585.01,633.62 542.31,639.94 ZM 668.44 471.52 C664.99,474.92 660.61,478.62 658.71,479.74 L 655.26 481.78 L 654.63 475.74 C654.28,472.42 654.00,466.01 654.00,461.50 C654.00,449.11 652.95,440.81 651.45,441.38 C650.62,441.70 649.02,438.58 646.72,432.18 C644.81,426.86 640.70,416.30 637.60,408.72 C634.49,401.14 631.68,392.95 631.35,390.52 C630.80,386.54 631.04,385.80 633.79,383.05 C637.28,379.57 639.03,379.26 641.27,381.75 C644.52,385.37 655.52,417.77 657.01,428.13 C657.53,431.78 658.36,435.83 658.85,437.13 C659.34,438.43 660.33,442.78 661.04,446.78 C662.84,456.93 664.38,454.63 664.84,441.08 C665.37,425.79 663.79,419.14 652.96,391.00 C650.10,383.58 645.48,370.98 642.69,363.00 C638.16,350.03 637.62,347.60 637.60,340.00 C637.57,333.17 638.00,330.69 639.74,327.38 C645.37,316.69 654.71,314.85 663.20,322.76 L 665.89 325.27 L 662.72 327.41 C660.98,328.59 658.48,331.11 657.19,333.02 C653.05,339.12 654.22,345.11 664.27,369.18 C678.83,404.08 683.50,422.11 682.84,440.98 C682.49,451.03 682.30,451.81 678.59,458.42 C676.46,462.23 671.89,468.13 668.44,471.52 ZM 623.37 496.51 C619.18,497.88 615.13,499.00 614.37,499.00 C613.24,499.00 613.00,493.27 613.01,465.75 C613.01,446.16 613.43,430.99 614.03,428.81 C616.23,420.93 626.20,417.22 632.30,422.02 C637.77,426.32 641.69,442.93 642.52,465.24 C642.83,473.63 643.30,482.21 643.56,484.30 L 644.04 488.11 L 637.52 491.06 C633.93,492.69 627.57,495.14 623.37,496.51 ZM 530.30 586.37 C525.42,588.85 520.60,588.34 507.50,583.94 C488.21,577.47 457.36,561.82 453.02,556.30 C450.20,552.71 450.49,549.36 453.92,545.92 C456.38,543.46 457.65,543.00 461.90,543.00 C466.37,543.00 469.49,544.31 489.23,554.44 C513.08,566.68 525.30,571.39 538.02,573.24 C542.41,573.88 546.00,574.74 546.00,575.15 C546.00,576.07 534.71,584.13 530.30,586.37 ZM 447.94 607.02 C445.71,607.62 442.18,609.65 440.09,611.54 L 436.29 614.97 L 420.50 605.94 C402.07,595.39 396.47,591.68 395.62,589.45 C394.53,586.62 394.95,582.52 396.56,580.22 C399.60,575.88 403.79,577.10 420.89,587.35 C429.48,592.50 439.99,598.62 444.25,600.95 C448.51,603.27 452.00,605.35 452.00,605.55 C452.00,605.76 450.17,606.41 447.94,607.02 Z" fill="rgb(203,109,90)"/>
<path d="M 0.00 512.00 L 0.00 0.00 L 512.00 0.00 L 1024.00 0.00 L 1024.00 512.00 L 1024.00 1024.00 L 512.00 1024.00 L 0.00 1024.00 L 0.00 512.00 ZM 458.17 753.38 C464.52,751.36 471.30,745.14 474.68,738.22 C477.03,733.41 477.47,731.25 477.47,724.50 C477.46,714.21 474.74,707.75 467.77,701.48 C453.02,688.23 426.29,693.20 418.28,710.69 C416.02,715.63 415.82,717.13 416.20,725.84 C416.68,736.95 418.56,741.65 424.64,746.99 C433.91,755.12 445.64,757.36 458.17,753.38 ZM 363.27 753.42 C367.43,752.00 377.04,744.82 376.97,743.17 C376.96,742.80 374.70,740.97 371.94,739.10 L 366.94 735.71 L 364.72 737.79 C357.64,744.42 342.55,742.84 338.52,735.04 C335.37,728.94 334.98,729.07 357.75,728.77 L 378.50 728.50 L 378.30 721.26 C377.82,703.98 367.75,694.00 350.79,694.00 C338.66,694.00 328.73,699.95 323.22,710.50 C321.06,714.64 320.60,716.88 320.56,723.50 C320.50,733.98 322.71,740.32 328.35,745.85 C336.77,754.12 351.72,757.36 363.27,753.42 ZM 409.82 754.10 C412.35,752.74 411.62,742.00 408.99,742.00 C403.80,742.00 404.00,743.51 404.00,704.89 L 404.00 669.00 L 396.00 669.00 L 388.00 669.00 L 388.00 706.53 C388.00,749.50 388.04,749.75 395.21,753.01 C399.74,755.07 406.99,755.61 409.82,754.10 ZM 315.62 750.88 C315.28,749.16 315.00,746.23 315.00,744.38 L 315.00 741.00 L 294.00 741.00 C281.40,741.00 273.00,740.62 273.00,740.05 C273.00,739.53 282.22,727.26 293.49,712.80 L 313.97 686.50 L 313.99 681.25 L 314.00 676.00 L 283.45 676.00 L 252.91 676.00 L 253.20 682.75 L 253.50 689.50 L 272.72 690.00 L 291.94 690.50 L 271.01 716.50 L 250.08 742.50 L 250.04 748.25 L 250.00 754.00 L 283.12 754.00 L 316.25 754.00 L 315.62 750.88 ZM 521.65 752.25 C521.97,751.29 523.28,747.80 524.55,744.50 L 526.88 738.50 L 542.73 738.23 L 558.58 737.95 L 561.10 745.73 L 563.62 753.50 L 572.31 753.79 L 581.01 754.08 L 578.11 746.29 C576.52,742.01 570.86,727.03 565.53,713.00 C560.19,698.97 555.04,685.25 554.07,682.50 L 552.31 677.50 L 543.56 677.50 L 534.80 677.50 L 521.10 711.50 C513.56,730.20 506.63,747.41 505.70,749.75 L 504.02 754.00 L 512.54 754.00 C519.77,754.00 521.15,753.73 521.65,752.25 ZM 605.22 741.75 L 605.50 729.50 L 616.50 728.89 C628.87,728.21 632.91,726.88 638.77,721.59 C644.77,716.17 647.35,709.31 646.77,700.30 C646.12,690.25 642.68,684.68 634.54,680.52 C628.66,677.50 628.62,677.50 608.83,677.17 L 589.00 676.85 L 589.00 715.42 L 589.00 754.00 L 596.97 754.00 L 604.94 754.00 L 605.22 741.75 ZM 673.00 742.09 L 673.00 730.19 L 682.75 729.52 C698.33,728.45 705.62,725.30 710.87,717.38 C714.62,711.73 715.41,707.96 714.76,698.91 C714.19,690.86 711.25,685.51 705.24,681.56 C699.61,677.85 694.20,677.05 674.75,677.02 L 657.00 677.00 L 657.00 715.50 L 657.00 754.00 L 665.00 754.00 L 673.00 754.00 L 673.00 742.09 ZM 741.00 738.50 L 741.00 723.00 L 756.00 723.00 L 771.00 723.00 L 771.00 716.50 L 771.00 710.00 L 756.00 710.00 L 741.00 710.00 L 741.00 700.52 L 741.00 691.05 L 757.75 690.77 L 774.50 690.50 L 774.80 683.75 L 775.09 677.00 L 750.05 677.00 L 725.00 677.00 L 725.00 715.50 L 725.00 754.00 L 733.00 754.00 L 741.00 754.00 L 741.00 738.50 ZM 542.31 639.94 C585.01,633.62 620.88,616.54 651.23,588.08 C676.30,564.58 696.90,529.38 705.92,494.62 C710.07,478.66 711.27,465.99 710.73,444.00 C710.12,418.70 707.61,404.69 699.99,383.95 C693.77,367.01 680.67,341.86 675.57,337.07 C672.39,334.08 668.62,334.90 666.48,339.03 C664.47,342.92 665.37,346.34 672.50,361.92 C686.48,392.46 693.00,416.86 693.00,438.64 C693.00,455.52 688.98,465.00 676.20,478.24 C667.22,487.54 651.75,497.27 636.83,502.99 C628.58,506.16 614.65,509.77 602.00,512.03 C591.53,513.89 583.48,515.84 571.00,519.51 C529.87,531.61 524.73,533.44 520.44,537.49 C517.40,540.36 517.00,541.33 517.00,545.79 C517.00,549.83 517.55,551.49 519.71,554.07 C525.85,561.36 534.45,562.39 565.08,559.46 C573.94,558.62 582.05,558.20 583.10,558.53 C584.66,559.03 583.68,560.10 577.76,564.37 C573.77,567.25 563.53,574.92 555.00,581.41 C538.68,593.84 531.77,598.00 527.44,598.00 C522.66,598.00 505.17,594.02 494.25,590.44 C482.20,586.50 462.29,577.04 448.00,568.46 C436.00,561.26 423.23,555.00 420.53,555.00 C418.30,555.00 414.28,557.42 412.28,559.95 C410.29,562.48 410.77,567.63 413.25,570.41 C415.61,573.05 441.43,588.40 461.00,598.79 C479.95,608.86 490.13,611.94 510.82,613.89 C516.49,614.42 521.77,615.39 522.56,616.05 C524.49,617.66 524.38,620.48 522.29,622.57 C520.81,624.05 519.20,624.19 510.04,623.63 C497.12,622.84 484.67,620.87 471.52,617.53 C466.04,616.14 459.14,615.00 456.20,615.00 C451.62,615.00 450.43,615.42 447.92,617.92 C443.76,622.09 444.03,625.31 448.75,627.55 C458.54,632.20 476.04,637.06 491.50,639.43 C502.42,641.10 532.41,641.40 542.31,639.94 ZM 447.94 607.02 C450.17,606.41 452.00,605.76 452.00,605.55 C452.00,605.35 448.51,603.27 444.25,600.95 C439.99,598.62 429.48,592.50 420.89,587.35 C403.79,577.10 399.60,575.88 396.56,580.22 C394.95,582.52 394.53,586.62 395.62,589.45 C396.47,591.68 402.07,595.39 420.50,605.94 L 436.29 614.97 L 440.09 611.54 C442.18,609.65 445.71,607.62 447.94,607.02 ZM 530.30 586.37 C534.71,584.13 546.00,576.07 546.00,575.15 C546.00,574.74 542.41,573.88 538.02,573.24 C525.30,571.39 513.08,566.68 489.23,554.44 C469.49,544.31 466.37,543.00 461.90,543.00 C457.65,543.00 456.38,543.46 453.92,545.92 C450.49,549.36 450.20,552.71 453.02,556.30 C457.36,561.82 488.21,577.47 507.50,583.94 C520.60,588.34 525.42,588.85 530.30,586.37 ZM 374.68 576.94 C379.56,575.10 383.96,569.95 385.66,564.08 C388.46,554.48 386.27,544.43 375.23,516.00 C360.03,476.90 358.22,463.71 365.97,448.61 C368.86,442.99 369.00,442.15 369.00,430.32 L 369.00 417.93 L 366.75 419.13 C365.51,419.80 360.64,424.20 355.91,428.92 C344.30,440.54 342.53,444.86 342.54,461.50 C342.55,469.16 343.19,476.52 344.32,481.85 C346.87,493.80 354.00,514.14 361.74,531.50 C369.73,549.43 370.83,556.06 366.81,561.98 C365.51,563.90 362.74,566.42 360.66,567.59 L 356.87 569.71 L 360.19 572.51 C363.51,575.31 368.47,577.89 370.68,577.96 C371.34,577.98 373.14,577.52 374.68,576.94 ZM 355.55 558.55 C359.38,554.71 358.74,550.96 351.39,534.44 C344.23,518.34 337.10,497.92 334.48,486.00 C333.57,481.88 332.60,471.98 332.31,464.00 C331.84,450.91 332.00,448.87 333.97,443.00 C337.03,433.91 340.81,428.42 350.29,419.32 C366.78,403.49 391.68,392.06 420.81,386.94 C436.39,384.21 447.31,381.25 473.00,372.82 C497.31,364.85 500.68,363.36 504.37,358.97 C508.10,354.54 508.48,351.88 506.17,346.65 C502.14,337.55 493.43,335.76 466.06,338.41 C448.19,340.14 438.99,340.42 439.01,339.25 C439.02,338.84 440.48,337.56 442.26,336.40 C444.04,335.25 451.35,329.38 458.50,323.36 C482.36,303.27 487.73,299.99 496.71,300.01 C511.76,300.05 532.26,307.32 567.85,325.23 C593.91,338.35 597.76,340.00 602.18,340.00 C606.34,340.00 607.63,339.52 610.08,337.08 C616.51,330.65 612.54,325.43 593.50,315.28 C586.90,311.76 574.45,305.05 565.84,300.37 C544.41,288.73 533.54,285.18 512.71,283.02 C503.15,282.03 501.00,281.02 501.00,277.50 C501.00,273.21 503.08,272.65 516.28,273.35 C529.21,274.04 539.15,275.53 553.43,278.93 C564.29,281.51 568.62,281.53 572.70,279.04 C576.49,276.73 579.44,272.58 578.68,270.61 C578.01,268.86 565.23,263.87 554.22,261.06 C533.73,255.82 507.37,253.96 488.23,256.39 C460.88,259.87 443.47,265.09 419.50,277.03 C380.70,296.35 350.32,326.99 332.02,365.26 C323.80,382.45 319.08,397.35 315.31,418.00 C312.65,432.55 312.94,462.47 315.91,479.44 C317.16,486.56 319.24,496.07 320.55,500.58 C327.79,525.58 346.01,561.00 351.62,561.00 C352.43,561.00 354.20,559.90 355.55,558.55 ZM 391.57 512.92 C394.71,509.45 393.75,504.56 386.09,485.11 C382.11,475.00 378.06,463.52 377.10,459.61 L 375.34 452.50 L 372.18 458.00 C368.03,465.22 368.00,471.08 372.02,485.42 C375.20,496.72 380.58,511.63 382.26,513.75 C383.84,515.76 389.46,515.26 391.57,512.92 ZM 623.37 496.51 C627.57,495.14 633.93,492.69 637.52,491.06 L 644.04 488.11 L 643.56 484.30 C643.30,482.21 642.83,473.63 642.52,465.24 C641.69,442.93 637.77,426.32 632.30,422.02 C626.20,417.22 616.23,420.93 614.03,428.81 C613.43,430.99 613.01,446.16 613.01,465.75 C613.00,493.27 613.24,499.00 614.37,499.00 C615.13,499.00 619.18,497.88 623.37,496.51 ZM 668.44 471.52 C671.89,468.13 676.46,462.23 678.59,458.42 C682.30,451.81 682.49,451.03 682.84,440.98 C683.50,422.11 678.83,404.08 664.27,369.18 C654.22,345.11 653.05,339.12 657.19,333.02 C658.48,331.11 660.98,328.59 662.72,327.41 L 665.89 325.27 L 663.20 322.76 C654.71,314.85 645.37,316.69 639.74,327.38 C638.00,330.69 637.57,333.17 637.60,340.00 C637.62,347.60 638.16,350.03 642.69,363.00 C645.48,370.98 650.10,383.58 652.96,391.00 C663.79,419.14 665.37,425.79 664.84,441.08 C664.38,454.63 662.84,456.93 661.04,446.78 C660.33,442.78 659.34,438.43 658.85,437.13 C658.36,435.83 657.53,431.78 657.01,428.13 C655.52,417.77 644.52,385.37 641.27,381.75 C639.03,379.26 637.28,379.57 633.79,383.05 C631.04,385.80 630.80,386.54 631.35,390.52 C631.68,392.95 634.49,401.14 637.60,408.72 C640.70,416.30 644.81,426.86 646.72,432.18 C649.02,438.58 650.62,441.70 651.45,441.38 C652.95,440.81 654.00,449.11 654.00,461.50 C654.00,466.01 654.28,472.42 654.63,475.74 L 655.26 481.78 L 658.71 479.74 C660.61,478.62 664.99,474.92 668.44,471.52 ZM 405.83 473.73 C410.78,469.18 411.00,467.40 411.00,432.53 C411.00,414.64 410.76,400.00 410.47,400.00 C409.13,400.00 396.71,404.51 389.25,407.70 L 381.00 411.24 L 381.00 415.37 C381.01,425.42 383.16,451.92 384.49,458.26 C387.82,474.24 397.59,481.32 405.83,473.73 ZM 569.72 351.48 C572.72,348.48 573.15,347.50 572.61,344.82 C572.27,343.10 571.45,341.04 570.79,340.25 C568.97,338.05 531.76,319.73 521.00,315.72 C515.78,313.78 507.58,311.39 502.79,310.40 L 494.09 308.61 L 488.32 312.55 C481.56,317.18 476.00,321.89 476.00,322.98 C476.00,323.41 479.71,324.31 484.25,324.98 C497.11,326.89 511.05,332.01 532.11,342.56 C554.45,353.74 557.11,354.83 562.35,354.93 C565.47,354.99 566.87,354.33 569.72,351.48 ZM 626.69 315.83 C628.18,314.42 629.00,312.51 629.00,310.40 C629.00,305.80 624.64,302.42 603.49,290.66 L 585.80 280.82 L 583.15 283.35 C581.69,284.74 578.08,286.99 575.12,288.36 L 569.73 290.85 L 574.87 293.68 C577.69,295.23 588.44,301.29 598.75,307.14 C619.08,318.68 622.51,319.75 626.69,315.83 ZM 439.76 739.94 C434.18,736.99 431.69,731.43 432.17,722.98 C432.48,717.59 433.08,715.58 435.26,712.72 C438.45,708.54 443.59,706.55 449.21,707.30 C456.66,708.30 461.01,714.75 460.98,724.72 C460.95,738.09 450.48,745.60 439.76,739.94 ZM 337.16 718.12 C336.04,717.41 336.07,716.78 337.31,714.38 C340.09,709.04 343.54,706.70 349.35,706.22 C352.43,705.97 355.65,706.28 356.91,706.95 C359.67,708.43 362.99,713.78 363.00,716.75 C363.00,718.96 362.79,719.00 350.75,718.98 C344.01,718.98 337.90,718.59 337.16,718.12 ZM 532.00 723.97 C532.00,723.40 534.25,717.12 537.00,710.00 C539.75,702.88 542.00,696.60 542.00,696.03 C542.00,692.55 544.05,696.66 547.86,707.77 C554.46,727.04 555.08,725.00 542.62,725.00 C535.99,725.00 532.00,724.61 532.00,723.97 ZM 605.00 703.00 L 605.00 690.00 L 609.25 690.08 C624.29,690.38 629.66,693.02 630.68,700.63 C632.01,710.54 625.52,715.94 612.25,715.98 L 605.00 716.00 L 605.00 703.00 ZM 673.67 715.33 C673.30,714.97 673.00,709.06 673.00,702.20 L 673.00 689.74 L 682.25 690.45 C692.77,691.25 695.49,692.54 697.68,697.78 C700.78,705.19 696.49,713.17 688.41,715.04 C683.82,716.11 674.62,716.29 673.67,715.33 Z" fill="rgb(254,254,254)"/>
</g>
</svg>